<?xml version="1.0" encoding="utf-8"?>
<!-- Generator: Adobe Illustrator 16.0.0, SVG Export Plug-In . SVG Version: 6.00 Build 0)  -->
<!DOCTYPE svg PUBLIC "-//W3C//DTD SVG 1.1//EN" "http://www.w3.org/Graphics/SVG/1.1/DTD/svg11.dtd">
<svg version="1.1" id="Logo" xmlns="http://www.w3.org/2000/svg" xmlns:xlink="http://www.w3.org/1999/xlink" x="0px" y="0px"
	 width="800px" height="226.089px" viewBox="0 0 800 226.089" enable-background="new 0 0 800 226.089" xml:space="preserve">
<g>
	<path fill="#08B767" d="M227.393,79.904c0,5.956-4.346,10.624-11.268,10.624c-6.601,0-10.947-4.668-10.947-10.624
		c0-6.117,4.507-10.785,11.108-10.785C223.047,69.119,227.232,73.787,227.393,79.904z M206.305,180.191v-78.396h19.961v78.396
		H206.305z"/>
	<path fill="#08B767" d="M313.997,140.269c0,28.816-20.283,41.694-40.244,41.694c-22.215,0-39.277-15.293-39.277-40.405
		c0-25.757,16.902-41.532,40.565-41.532C298.383,100.025,313.997,116.444,313.997,140.269z M254.919,141.074
		c0,15.132,7.404,26.562,19.478,26.562c11.269,0,19.157-11.107,19.157-26.884c0-12.233-5.474-26.239-18.997-26.239
		C260.552,114.513,254.919,128.035,254.919,141.074z"/>
	<path fill="#08B767" d="M321.238,162.001c4.508,2.737,13.04,5.635,20.122,5.635c8.693,0,12.556-3.541,12.556-8.693
		c0-5.312-3.218-8.049-12.877-11.429c-15.292-5.313-21.732-13.683-21.571-22.859c0-13.844,11.429-24.629,29.62-24.629
		c8.692,0,16.258,2.254,20.765,4.668l-3.863,14.006c-3.38-1.933-9.658-4.509-16.58-4.509c-7.083,0-10.946,3.381-10.946,8.211
		c0,4.99,3.703,7.404,13.682,10.946c14.167,5.151,20.765,12.395,20.927,23.985c0,14.166-11.107,24.47-31.873,24.47
		c-9.499,0-18.03-2.256-23.825-5.475L321.238,162.001z"/>
</g>
<g>
	<path fill="#004698" d="M416.533,130.451v13.681h-41.048v-13.681H416.533z"/>
	<path fill="#004698" d="M498.95,65.899v92.239c0,8.049,0.323,16.742,0.644,22.054h-17.707l-0.804-12.395h-0.323
		c-4.669,8.692-14.166,14.166-25.595,14.166c-18.674,0-33.483-15.938-33.483-40.084c-0.161-26.238,16.259-41.854,35.092-41.854
		c10.785,0,18.514,4.508,22.055,10.303h0.32V65.899H498.95z M479.148,134.475c0-1.609-0.16-3.542-0.48-5.152
		c-1.771-7.727-8.051-14.003-17.065-14.003c-12.716,0-19.799,11.267-19.799,25.916c0,14.326,7.083,24.79,19.638,24.79
		c8.05,0,15.132-5.473,17.064-14.005c0.482-1.771,0.643-3.702,0.643-5.795V134.475z"/>
	<path fill="#004698" d="M508.861,127.069c0-10.625-0.161-18.19-0.645-25.273h17.226l0.645,14.971h0.644
		c3.863-11.107,13.039-16.741,21.409-16.741c1.931,0,3.059,0.161,4.668,0.483v18.673c-1.609-0.322-3.38-0.644-5.795-0.644
		c-9.496,0-15.936,6.116-17.707,14.971c-0.323,1.771-0.645,3.863-0.645,6.117v40.565h-19.8V127.069z"/>
	<path fill="#004698" d="M582.491,79.904c0,5.956-4.347,10.624-11.27,10.624c-6.598,0-10.946-4.668-10.946-10.624
		c0-6.117,4.509-10.785,11.107-10.785C578.145,69.119,582.33,73.787,582.491,79.904z M561.402,180.191v-78.396h19.961v78.396
		H561.402z"/>
	<path fill="#004698" d="M610.404,101.796l12.716,39.762c2.256,6.922,3.863,13.2,5.314,19.639h0.482
		c1.448-6.438,3.218-12.556,5.311-19.639l12.396-39.762h20.926l-29.94,78.396h-19.478l-29.137-78.396H610.404z"/>
	<path fill="#004698" d="M683.487,146.549c0.483,14.166,11.591,20.282,24.147,20.282c9.175,0,15.775-1.288,21.732-3.542
		l2.896,13.684c-6.761,2.735-16.096,4.83-27.366,4.83c-25.434,0-40.402-15.616-40.402-39.602c0-21.732,13.197-42.176,38.312-42.176
		c25.435,0,33.806,20.927,33.806,38.15c0,3.703-0.323,6.601-0.646,8.373H683.487z M717.938,132.704
		c0.16-7.244-3.059-19.157-16.26-19.157c-12.234,0-17.386,11.107-18.19,19.157H717.938z"/>
	<path fill="#004698" d="M744.494,127.069c0-10.625-0.159-18.19-0.644-25.273h17.224l0.644,14.971h0.645
		c3.863-11.107,13.039-16.741,21.411-16.741c1.931,0,3.059,0.161,4.666,0.483v18.673c-1.607-0.322-3.379-0.644-5.794-0.644
		c-9.499,0-15.938,6.116-17.707,14.971c-0.323,1.771-0.646,3.863-0.646,6.117v40.565h-19.799V127.069z"/>
</g>
<radialGradient id="SVGID_1_" cx="102.6738" cy="-1461.8789" r="90.2111" gradientTransform="matrix(1 0 0 0.1074 0 361.5375)" gradientUnits="userSpaceOnUse">
	<stop  offset="0" style="stop-color:#9C9C9C"/>
	<stop  offset="0.3886" style="stop-color:#CFCFCF;stop-opacity:0.5566"/>
	<stop  offset="0.7059" style="stop-color:#F2F2F2;stop-opacity:0.1945"/>
	<stop  offset="0.8763" style="stop-color:#FFFFFF;stop-opacity:0"/>
</radialGradient>
<path fill="url(#SVGID_1_)" d="M10.234,204.47c0,5.228,41.381,9.456,92.418,9.456c51.066,0,92.462-4.229,92.462-9.456
	c0-5.207-41.396-9.437-92.462-9.437C51.615,195.033,10.234,199.263,10.234,204.47"/>
<path fill="#004698" d="M124.189,149.262c18.985-11.328,25.188-35.902,13.854-54.888c-7.492-12.561-20.791-19.528-34.438-19.521
	c-6.985,0-14.051,1.818-20.475,5.655c-18.985,11.33-25.194,35.911-13.876,54.896C80.597,154.389,105.168,160.592,124.189,149.262z"
	/>
<g>
	<path fill="none" d="M88.315,49.21c-2.022,0.478-4.281,1.312-6.723,2.329c-4.897,2.073-10.673,5.043-16.157,9.842
		c-5.492,4.701-10.845,10.972-14.732,18.741c-1.805,3.939-3.531,8.09-4.493,12.579c-1.199,4.406-1.462,9.284-1.512,13.649
		c-0.047,1.098,0.156,2.613,0.215,3.896l0.142,2.029l0.073,1.024c0.007,0.007,0.007,0.021,0.007,0.028
		c0-0.028-0.007-0.064-0.007-0.098c0-0.073,0-0.148,0-0.171l0.021,0.12l0.047,0.218l0.082,0.46c0.483,2.382,0.769,4.823,1.574,7.167
		c1.202,4.759,3.41,9.296,5.936,13.582c2.558,4.3,5.918,8.096,9.544,11.565c3.752,3.375,7.99,6.15,12.469,8.41
		c4.508,2.165,9.336,3.566,14.172,4.428c2.464,0.262,4.978,0.618,6.964,0.506c1.628,0.164,5.455-0.244,8.367-0.427
		c-1.382,0.033-0.321,0.009-0.605,0.009l0.12-0.03l0.222-0.044l0.445-0.09l0.881-0.187l1.786-0.343
		c1.188-0.164,2.333-0.543,3.461-0.904c2.326-0.582,4.476-1.588,6.641-2.463c4.197-2.08,8.074-4.572,11.434-7.587
		c3.279-3.091,6.159-6.456,8.417-10.122c2.135-3.747,3.921-7.543,4.934-11.476c0.488-1.956,6.662-21.598-9.859-38.858
		c-14.598-15.24-34.294-11.687-34.294-11.687L97.87,47.203c0,0-1.523,0.27-4.384,0.769C92.047,48.15,90.323,48.621,88.315,49.21z"/>
	<path fill="#08B767" d="M165.76,158.974c4.839-5.943,9.088-12.39,12.149-19.353c1.508-3.463,2.864-7.022,3.884-10.634
		c0.488-1.807,0.94-3.637,1.407-5.44c0.452-1.829,0.699-4.052,1.005-6.06c0.679-4.741,0.664-6.73,0.904-9.62l0.029-0.515
		l0.029-0.254v-0.12l-0.036-1.232l-0.044-1.347l-0.125-2.705c-0.109-1.797-0.109-3.59-0.364-5.356
		c-1.647-14.219-6.836-27.381-13.891-38.003c-7.134-10.64-16.055-18.781-24.903-24.597c-8.848-5.903-17.738-9.237-25.18-11.329
		c-1.88-0.47-3.673-0.911-5.356-1.326c-1.793-0.383-3.774-0.634-5.451-0.868c-1.743-0.215-3.338-0.408-4.817-0.59
		c-0.984-0.08-1.903-0.149-2.7-0.215c-2.904-0.2-4.45-0.313-4.45-0.313l0.018,28.106l0.015,28.105c0,0,19.696-3.553,34.294,11.687
		c16.521,17.26,10.348,36.902,9.859,38.858c-1.013,3.933-2.799,7.729-4.934,11.476c-2.258,3.666-5.138,7.031-8.417,10.122
		c-3.36,3.015-7.237,5.507-11.434,7.587c-2.165,0.875-4.315,1.881-6.641,2.463c-1.129,0.361-2.273,0.74-3.461,0.904l-1.786,0.343
		l-0.881,0.187l-0.445,0.09l-0.222,0.044l-0.12,0.03c0.284,0-0.777,0.024,0.605-0.009c-2.912,0.183-6.739,0.591-8.367,0.427
		c-1.986,0.112-4.5-0.244-6.964-0.506c-4.835-0.861-9.664-2.263-14.172-4.428c-4.479-2.26-8.716-5.035-12.469-8.41
		c-3.626-3.47-6.986-7.266-9.544-11.565c-2.525-4.286-4.734-8.823-5.936-13.582c-0.805-2.344-1.09-4.785-1.574-7.167l-0.082-0.46
		l-0.047-0.218l-0.021-0.12c0,0.022,0,0.098,0,0.171c0,0.033,0.007,0.069,0.007,0.098c0-0.007,0-0.021-0.007-0.028l-0.073-1.024
		l-0.142-2.029c-0.059-1.283-0.262-2.799-0.215-3.896c0.05-4.365,0.313-9.243,1.512-13.649c0.962-4.489,2.688-8.64,4.493-12.579
		c3.888-7.769,9.241-14.04,14.732-18.741c5.484-4.799,11.26-7.769,16.157-9.842c2.442-1.017,4.701-1.852,6.723-2.329
		c2.008-0.59,3.732-1.06,5.171-1.238c2.86-0.5,4.384-0.769,4.384-0.769s-1.552,0.043-4.463,0.135c-1.473-0.026-3.27,0.2-5.375,0.507
		c-2.132,0.193-4.53,0.706-7.208,1.396c-5.327,1.41-11.829,3.654-18.442,7.939c-6.633,4.224-13.538,10.24-19.2,18.442
		c-5.634,8.304-9.956,18.246-11.522,30.514c-1.436,11.038,0.007,24.419,5.244,36.51c2.583,6.125,6.264,11.907,10.574,17.342
		c4.428,5.367,9.726,10.118,15.644,14.262c5.979,4.03,12.663,7.186,19.732,9.479c3.575,0.983,7.084,2.015,11.292,2.507
		c4.515,0.731,6.895,0.685,10.17,0.978l6.384-0.26c1.917-0.026,3.812-0.314,5.699-0.604c3.826-0.413,7.528-1.41,11.259-2.384
		c7.339-2.274,14.43-5.483,20.895-9.715C154.93,169.92,160.789,164.822,165.76,158.974z"/>
</g>
<defs>
	<filter id="Adobe_OpacityMaskFilter" filterUnits="userSpaceOnUse" x="72.194" y="80.061" width="63.204" height="42.335">
		<feFlood  style="flood-color:white;flood-opacity:1" result="back"/>
		<feBlend  in="SourceGraphic" in2="back" mode="normal"/>
	</filter>
</defs>
<mask maskUnits="userSpaceOnUse" x="72.194" y="80.061" width="63.204" height="42.335" id="SVGID_2_">
	<g filter="url(#Adobe_OpacityMaskFilter)">
		<g enable-background="new    ">
			<g>
				<defs>
					<path id="SVGID_3_" d="M135.398,104.256c0,10.022-14.13,18.14-31.618,18.14c-17.451,0-31.586-8.117-31.586-18.14
						c0-10.017,14.135-24.195,31.586-24.195C121.268,80.061,135.398,94.239,135.398,104.256"/>
				</defs>
				<clipPath id="SVGID_4_">
					<use xlink:href="#SVGID_3_"  overflow="visible"/>
				</clipPath>
				<defs>
					<filter id="Adobe_OpacityMaskFilter_1_" filterUnits="userSpaceOnUse" x="72.194" y="80.061" width="63.204" height="42.335">
						<feFlood  style="flood-color:white;flood-opacity:1" result="back"/>
						<feBlend  in="SourceGraphic" in2="back" mode="normal"/>
					</filter>
				</defs>
				<mask maskUnits="userSpaceOnUse" x="72.194" y="80.061" width="63.204" height="42.335" id="SVGID_2_">
					<g filter="url(#Adobe_OpacityMaskFilter_1_)">
						<g enable-background="new    ">
						</g>
					</g>
				</mask>
				
					<linearGradient id="SVGID_5_" gradientUnits="userSpaceOnUse" x1="265.0332" y1="378.3828" x2="272.4966" y2="378.3828" gradientTransform="matrix(0 -5.6724 -5.6724 0 2250.134 1625.7657)">
					<stop  offset="0" style="stop-color:#231F20"/>
					<stop  offset="0.1713" style="stop-color:#262223"/>
					<stop  offset="0.309" style="stop-color:#302C2D"/>
					<stop  offset="0.4349" style="stop-color:#413D3E"/>
					<stop  offset="0.554" style="stop-color:#585556"/>
					<stop  offset="0.6681" style="stop-color:#767474"/>
					<stop  offset="0.7786" style="stop-color:#9B9A9A"/>
					<stop  offset="0.8861" style="stop-color:#C7C6C7"/>
					<stop  offset="0.9888" style="stop-color:#F9F9F9"/>
					<stop  offset="1" style="stop-color:#FFFFFF"/>
				</linearGradient>
				
					<rect x="72.194" y="80.061" clip-path="url(#SVGID_4_)" mask="url(#SVGID_2_)" fill="url(#SVGID_5_)" width="63.204" height="42.335"/>
			</g>
		</g>
	</g>
</mask>
<g>
	<g>
		<defs>
			<rect id="SVGID_6_" x="72.194" y="80.061" width="63.204" height="42.335"/>
		</defs>
		<clipPath id="SVGID_7_">
			<use xlink:href="#SVGID_6_"  overflow="visible"/>
		</clipPath>
		<g clip-path="url(#SVGID_7_)">
			<defs>
				<path id="SVGID_8_" d="M135.398,104.256c0,10.022-14.13,18.14-31.618,18.14c-17.451,0-31.586-8.117-31.586-18.14
					c0-10.017,14.135-24.195,31.586-24.195C121.268,80.061,135.398,94.239,135.398,104.256"/>
			</defs>
			<clipPath id="SVGID_9_">
				<use xlink:href="#SVGID_8_"  overflow="visible"/>
			</clipPath>
			
				<linearGradient id="SVGID_10_" gradientUnits="userSpaceOnUse" x1="265.0332" y1="378.3828" x2="272.4966" y2="378.3828" gradientTransform="matrix(0 -5.6724 -5.6724 0 2250.134 1625.7657)">
				<stop  offset="0" style="stop-color:#FDFDFE"/>
				<stop  offset="0.9104" style="stop-color:#FDFDFE"/>
				<stop  offset="1" style="stop-color:#FDFDFE"/>
			</linearGradient>
			<rect x="72.194" y="80.061" clip-path="url(#SVGID_9_)" fill="url(#SVGID_10_)" width="63.204" height="42.335"/>
		</g>
	</g>
</g>
</svg>
